<svg width="120" height="24" viewBox="0 0 120 24" fill="none" xmlns="http://www.w3.org/2000/svg">
<g clip-path="url(#clip0_91_10730)">
<path d="M25.4437 0H28.7356V3.1089H25.9752C24.6035 3.1089 23.6606 3.80925 23.6606 5.61993V7.0548H28.2898V10.3004H23.6606V23.6242H20.1629V5.48327C20.1629 2.30605 21.9117 0 25.4437 0Z" fill="#18367F"/>
<path d="M35.9709 0H39.2628V3.1089H36.5024C35.1308 3.1089 34.1878 3.80925 34.1878 5.61993V7.0548H38.817V10.3004H34.1878V23.6242H30.6901V5.48327C30.6901 2.30605 32.4389 0 35.9709 0Z" fill="#18367F"/>
<path d="M51.8646 0V15.1004C51.8646 18.6875 54.0763 20.652 56.9739 20.652C59.8714 20.652 62.0146 18.6021 62.0146 15.5616C62.0146 12.521 60.0258 10.1979 56.2024 10.1979H54.0249L55.0708 6.88399H56.4424C61.9803 6.88399 65.5465 10.6932 65.5465 15.5274C65.5465 20.3616 61.8089 24 56.9396 24C52.0703 24 48.3669 20.652 48.3669 15.2199V0H51.8646Z" fill="#18367F"/>
<path d="M67.2268 14.9637C67.2268 9.94164 70.9645 6.4911 75.8337 6.4911C80.703 6.4911 84.4064 9.83915 84.4064 15.2883V23.6242H80.9087V15.3907C80.9087 11.8036 78.697 9.83915 75.7994 9.83915C72.9019 9.83915 70.7587 11.9061 70.7587 14.9295C70.7587 17.953 72.7476 20.2932 76.571 20.2932H78.7484L77.7026 23.6071H76.3309C70.793 23.6071 67.2268 19.7979 67.2268 14.9637Z" fill="#18367F"/>
<path d="M94.6593 6.4911C99.0999 6.4911 102.117 9.49751 102.117 14.2292V23.6071H98.6198V14.2292C98.6198 11.5132 97.0425 9.83915 94.6593 9.83915C92.2761 9.83915 90.6987 11.5132 90.6987 14.2292V23.6071H87.2011V14.2292C87.2011 9.48043 90.2186 6.4911 94.6593 6.4911Z" fill="#18367F"/>
<path d="M108.804 15.6299V23.6071H105.341V0H108.804V14.5708L115.525 6.8669H119.76L112.61 14.9979L120 23.6071H115.662L108.804 15.6299Z" fill="#18367F"/>
<path d="M15.6535 11.8037C16.9792 11.8037 18.0539 10.733 18.0539 9.41225C18.0539 8.09149 16.9792 7.02079 15.6535 7.02079C14.3279 7.02079 13.2532 8.09149 13.2532 9.41225C13.2532 10.733 14.3279 11.8037 15.6535 11.8037Z" fill="#FF007B"/>
<path d="M15.6537 13.5117C14.9336 13.5117 14.2821 13.3068 13.682 12.9822C13.9735 13.6826 14.1449 14.4342 14.1449 15.237C14.1449 18.1238 12.1218 20.6007 8.86415 20.6007C5.60655 20.6007 3.54911 18.1238 3.54911 15.237C3.54911 12.3502 5.62369 9.82206 8.86415 9.82206C9.99575 9.82206 10.9559 10.1466 11.7617 10.6591C11.6245 10.2662 11.5388 9.83915 11.5388 9.4121C11.5388 8.55801 11.8131 7.75516 12.2589 7.10605C11.2302 6.71317 10.0986 6.4911 8.86415 6.4911C3.60055 6.4911 3.05176e-05 10.3174 3.05176e-05 15.237C3.05176e-05 20.1566 3.60055 23.9829 8.86415 23.9829C14.1278 23.9829 17.7283 20.1737 17.7283 15.237C17.7283 14.4854 17.6254 13.768 17.454 13.0847C16.9053 13.3409 16.3052 13.5117 15.6708 13.5117H15.6537Z" fill="#18367F"/>
</g>
<defs>
<clipPath id="clip0_91_10730">
<rect width="120" height="24" fill="white"/>
</clipPath>
</defs>
</svg>
